<svg width="289px" height="59px" QK="0 0 289 59" xmlns="http://www.w3.org/2000/svg" xmlns:xlink="http://www.w3.org/1999/xlink"><g transform="matrix(1, 0, 0, 1, 0, 0)" clip-path="url(#mainClip6147)"><g transform="matrix(0.5, 0, 0, 0.5, 47.880711874576996, 30.87817281207699)"><g transform="matrix(1, 0, 0, 1, -93.76142374915399, -59.75634562415398)"><path d="M 5,0 L 352.0535074966159,0 C 354.29208374746196,0 357.0535074966159,2.761423749153968 357.0535074966159,5 L 357.0535074966159,108.03553874661588 C 357.0535074966159,110.27411499746192 354.29208374746196,113.03553874661588 352.0535074966159,113.03553874661588 L 5,113.03553874661588 C 2.761423749153968,113.03553874661588 0,110.27411499746192 0,108.03553874661588 L 0,5 C 0,2.761423749153968 2.761423749153968,0 5,0 z" fill="url(#GRAD6148)" stroke="none" transform="matrix(1, 0, 0, 1, 0, 0)"></path><g transform="matrix(1, 0, 0, 1, 8.761423749153996, 8.761423749153975)"><g transform="matrix(1, 0, 0, 1, 116.3330078125, 0)"><g transform="matrix(1, 0, 0, 1, 0, 0)"><path d="M 0,0 L 12.522847498307936,0 L 12.522847498307936,12.522847498307936 L 0,12.522847498307936 z" fill="url(#GRAD6149)" stroke="none" transform="matrix(1, 0, 0, 1, 0.5, 0.5)"></path><path d="M 0,0 L 12.522847498307936,0 L 12.522847498307936,12.522847498307936 L 0,12.522847498307936 z" fill="none" stroke="gray" stroke-width="1" stroke-linecap="butt" stroke-linejoin="miter" stroke-miterlimit="10" transform="matrix(1, 0, 0, 1, 0.5, 0.5)"></path><path d="M 0,3 L 6,3" fill="black" stroke="none" transform="matrix(1, 0, 0, 1, 3.761423749153968, 3.761423749153968)"></path><path d="M 0,3 L 6,3" fill="none" stroke="black" stroke-width="1" stroke-linecap="butt" stroke-linejoin="miter" stroke-miterlimit="10" transform="matrix(1, 0, 0, 1, 3.761423749153968, 3.761423749153968)"></path></g><text x="0" y="9.74619140625" style="font: bold 12px sans-serif" text-anchor="start" fill="#333" stroke="none" transform="matrix(1, 0, 0, 1, 17.522847498307936, 4)">Concept Map 1</text></g></g></g><g transform="matrix(1, 0, 0, 1, -80, -6)"><path d="M 5,0 L 74.53065999830794,0 C 76.76923624915398,0 79.53065999830794,2.761423749153968 79.53065999830794,5 L 79.53065999830794,29.517769373307942 C 79.53065999830794,31.756345624153973 76.76923624915398,34.51776937330794 74.53065999830794,34.51776937330794 L 5,34.51776937330794 C 2.761423749153968,34.51776937330794 0,31.756345624153973 0,29.517769373307942 L 0,5 C 0,2.761423749153968 2.761423749153968,0 5,0 z" fill="lightblue" stroke="none" transform="matrix(1, 0, 0, 1, 0, 0)"></path><text x="0" y="9.74619140625" style="font: bold 12px sans-serif" text-anchor="start" fill="#333" stroke="none" transform="matrix(1, 0, 0, 1, 10.761423749153975, 10.761423749153968)">Concept 1</text></g><g transform="matrix(1, 0, 0, 1, 170, -30)"><path d="M 5,0 L 74.53065999830794,0 C 76.76923624915398,0 79.53065999830794,2.761423749153968 79.53065999830794,5 L 79.53065999830794,29.517769373307942 C 79.53065999830794,31.756345624153973 76.76923624915398,34.51776937330794 74.53065999830794,34.51776937330794 L 5,34.51776937330794 C 2.761423749153968,34.51776937330794 0,31.756345624153973 0,29.517769373307942 L 0,5 C 0,2.761423749153968 2.761423749153968,0 5,0 z" fill="orange" stroke="none" transform="matrix(1, 0, 0, 1, 0, 0)"></path><text x="0" y="9.74619140625" style="font: bold 12px sans-serif" text-anchor="start" fill="#333" stroke="none" transform="matrix(1, 0, 0, 1, 10.761423749153975, 10.761423749153968)">Concept 2</text></g><g transform="matrix(1, 0, 0, 1, 170, 10)"><path d="M 5,0 L 74.53065999830794,0 C 76.76923624915398,0 79.53065999830794,2.761423749153968 79.53065999830794,5 L 79.53065999830794,29.517769373307942 C 79.53065999830794,31.756345624153973 76.76923624915398,34.51776937330794 74.53065999830794,34.51776937330794 L 5,34.51776937330794 C 2.761423749153968,34.51776937330794 0,31.756345624153973 0,29.517769373307942 L 0,5 C 0,2.761423749153968 2.761423749153968,0 5,0 z" fill="beige" stroke="none" transform="matrix(1, 0, 0, 1, 0, 0)"></path><text x="0" y="9.74619140625" style="font: bold 12px sans-serif" text-anchor="start" fill="#333" stroke="none" transform="matrix(1, 0, 0, 1, 10.761423749153975, 10.761423749153968)">Concept 3</text></g><g transform="matrix(1, 0, 0, 1, 30, -6)"><path d="M 5,0 L 73.86855062330794,0 C 76.10712687415398,0 78.86855062330794,2.761423749153968 78.86855062330794,5 L 78.86855062330794,29.517769373307942 C 78.86855062330794,31.756345624153973 76.10712687415398,34.51776937330794 73.86855062330794,34.51776937330794 L 5,34.51776937330794 C 2.761423749153968,34.51776937330794 0,31.756345624153973 0,29.517769373307942 L 0,5 C 0,2.761423749153968 2.761423749153968,0 5,0 z" fill="rgb(255,255,255)" fill-opacity="0" stroke="none" transform="matrix(1, 0, 0, 1, 0, 0)"></path><text x="0" y="9.74619140625" style="font: bold 12px sans-serif" text-anchor="start" fill="#333" stroke="none" transform="matrix(1, 0, 0, 1, 10.761423749153975, 10.761423749153968)">Relation 1</text></g><g transform="matrix(1, 0, 0, 1, 290, -30)"><path d="M 5,0 L 73.86855062330794,0 C 76.10712687415398,0 78.86855062330794,2.761423749153968 78.86855062330794,5 L 78.86855062330794,29.517769373307942 C 78.86855062330794,31.756345624153973 76.10712687415398,34.51776937330794 73.86855062330794,34.51776937330794 L 5,34.51776937330794 C 2.761423749153968,34.51776937330794 0,31.756345624153973 0,29.517769373307942 L 0,5 C 0,2.761423749153968 2.761423749153968,0 5,0 z" fill="rgb(255,255,255)" fill-opacity="0" stroke="none" transform="matrix(1, 0, 0, 1, 0, 0)"></path><text x="0" y="9.74619140625" style="font: bold 12px sans-serif" text-anchor="start" fill="#333" stroke="none" transform="matrix(1, 0, 0, 1, 10.761423749153975, 10.761423749153968)">Relation 2</text></g><g transform="matrix(1, 0, 0, 1, 400, -30)"><path d="M 5,0 L 74.53065999830794,0 C 76.76923624915398,0 79.53065999830794,2.761423749153968 79.53065999830794,5 L 79.53065999830794,29.517769373307942 C 79.53065999830794,31.756345624153973 76.76923624915398,34.51776937330794 74.53065999830794,34.51776937330794 L 5,34.51776937330794 C 2.761423749153968,34.51776937330794 0,31.756345624153973 0,29.517769373307942 L 0,5 C 0,2.761423749153968 2.761423749153968,0 5,0 z" fill="orange" stroke="none" transform="matrix(1, 0, 0, 1, 0, 0)"></path><text x="0" y="9.74619140625" style="font: bold 12px sans-serif" text-anchor="start" fill="#333" stroke="none" transform="matrix(1, 0, 0, 1, 10.761423749153975, 10.761423749153968)">Concept 4</text></g><g transform="matrix(1, 0, 0, 1, -1.4693400016920748, 6.758884686653971)"><path d="M 0,0 L 27.469340001692075,0" fill="none" stroke="red" stroke-width="2" stroke-linecap="butt" stroke-linejoin="miter" stroke-miterlimit="10" transform="matrix(1, 0, 0, 1, 1, 4.5)"></path><path d="M 0,0 L 8,4 L 0,8 L 2,4 z" fill="red" stroke="none" transform="matrix(1, 0, 0, 1, 22.969340001692075, 0.5)"></path><path d="M 0,0 L 8,4 L 0,8 L 2,4 z" fill="none" stroke="red" stroke-width="1" stroke-linecap="butt" stroke-linejoin="miter" stroke-miterlimit="10" transform="matrix(1, 0, 0, 1, 22.969340001692075, 0.5)"></path></g><g transform="matrix(1, 0, 0, 1, 107.86855062330794, -17.24111531334603)"><path d="M 0,23.999999999999996 L 30.565724688346037,23.999999999999996 L 30.565724688346037,0 L 58.13144937669206,0" fill="none" stroke="black" stroke-width="2" stroke-linecap="butt" stroke-linejoin="miter" stroke-miterlimit="10" transform="matrix(1, 0, 0, 1, 1, 4.5)"></path><path d="M 0,0 L 8,4 L 0,8 L 2,4 z" fill="black" stroke="none" transform="matrix(1, 0, 0, 1, 53.63144937669206, 0.5)"></path><path d="M 0,0 L 8,4 L 0,8 L 2,4 z" fill="none" stroke="black" stroke-width="1" stroke-linecap="butt" stroke-linejoin="miter" stroke-miterlimit="10" transform="matrix(1, 0, 0, 1, 53.63144937669206, 0.5)"></path><path d="M 4,8 L 4,8 A 4,4 180 1,1 3.999999999999999,0" fill="none" stroke="black" stroke-width="2" stroke-linecap="butt" stroke-linejoin="miter" stroke-miterlimit="10" transform="matrix(1, 0, 0, 1, 2, 24.499999999999996)"></path></g><g transform="matrix(1, 0, 0, 1, 107.86855062330794, 6.258884686653968)"><path d="M 0,0 L 30.565724688346037,0 L 30.565724688346037,16.000000000000004 L 58.13144937669206,16.000000000000004" fill="none" stroke="black" stroke-width="2" stroke-linecap="butt" stroke-linejoin="miter" stroke-miterlimit="10" transform="matrix(1, 0, 0, 1, 1, 5)"></path><path d="M 0,0 L 8,4 L 0,8 L 2,4 z" fill="black" stroke="none" transform="matrix(1, 0, 0, 1, 53.63144937669206, 17.000000000000004)"></path><path d="M 0,0 L 8,4 L 0,8 L 2,4 z" fill="none" stroke="black" stroke-width="1" stroke-linecap="butt" stroke-linejoin="miter" stroke-miterlimit="10" transform="matrix(1, 0, 0, 1, 53.63144937669206, 17.000000000000004)"></path><path d="M 4,8 L 4,8 A 4,4 180 1,1 3.999999999999999,0" fill="none" stroke="black" stroke-width="2" stroke-linecap="butt" stroke-linejoin="miter" stroke-miterlimit="10" transform="matrix(1, 0, 0, 1, 2, 1)"></path></g><g transform="matrix(1, 0, 0, 1, 248.53065999830793, -17.24111531334603)"><path d="M 0,0 L 37.469340001692075,0" fill="none" stroke="black" stroke-width="2" stroke-linecap="butt" stroke-linejoin="miter" stroke-miterlimit="10" transform="matrix(1, 0, 0, 1, 1, 4.5)"></path><path d="M 0,0 L 8,4 L 0,8 L 2,4 z" fill="black" stroke="none" transform="matrix(1, 0, 0, 1, 32.969340001692075, 0.5)"></path><path d="M 0,0 L 8,4 L 0,8 L 2,4 z" fill="none" stroke="black" stroke-width="1" stroke-linecap="butt" stroke-linejoin="miter" stroke-miterlimit="10" transform="matrix(1, 0, 0, 1, 32.969340001692075, 0.5)"></path></g><g transform="matrix(1, 0, 0, 1, 367.86855062330795, -17.24111531334603)"><path d="M 0,0 L 28.131449376692046,3.552713678800501e-15" fill="none" stroke="black" stroke-width="2" stroke-linecap="butt" stroke-linejoin="miter" stroke-miterlimit="10" transform="matrix(1, 0, 0, 1, 1, 4.4999999999999964)"></path><path d="M 0,0 L 8,4 L 0,8 L 2,4 z" fill="black" stroke="none" transform="matrix(1, 0, 0, 1, 23.631449376692046, 0.5)"></path><path d="M 0,0 L 8,4 L 0,8 L 2,4 z" fill="none" stroke="black" stroke-width="1" stroke-linecap="butt" stroke-linejoin="miter" stroke-miterlimit="10" transform="matrix(1, 0, 0, 1, 23.631449376692046, 0.5)"></path></g></g></g><clipPath id="mainClip6147"><rect x="0" y="0" width="289" height="59"></rect></clipPath><linearGradient x1="178.52675374830795" x2="178.52675374830795" y1="0" y2="113.03553874661588" id="GRAD6148" gradientUnits="userSpaceOnUse"><stop offset="0" stop-color="rgb(224,234,252)" stop-opacity="0.5"></stop><stop offset="1" stop-color="rgb(207,222,243)" stop-opacity="0.5"></stop></linearGradient><linearGradient x1="6.261423749153968" x2="6.261423749153968" y1="0" y2="12.522847498307936" id="GRAD6149" gradientUnits="userSpaceOnUse"><stop offset="0" stop-color="white"></stop><stop offset="1" stop-color="lightgray"></stop></linearGradient></svg>